<svg width="36" height="36" viewBox="0 0 36 36" fill="none" xmlns="http://www.w3.org/2000/svg">
<g clip-path="url(#clip0_485_192)">
<path d="M17.8031 36C27.6354 36 35.6061 27.9411 35.6061 18C35.6061 8.05888 27.6354 0 17.8031 0C7.9707 0 0 8.05888 0 18C0 27.9411 7.9707 36 17.8031 36Z" fill="#3B5998"/>
<path d="M22.2787 18.7045H19.102V30.4713H14.289V18.7045H11.9999V14.5692H14.289V11.8931C14.289 9.97949 15.188 6.98291 19.1448 6.98291L22.71 6.99799V11.012H20.1233C19.6989 11.012 19.1023 11.2264 19.1023 12.1392V14.573H22.6992L22.2787 18.7045Z" fill="white"/>
</g>
<defs>
<clipPath id="clip0_485_192">
<rect width="35.6061" height="36" fill="white"/>
</clipPath>
</defs>
</svg>
